<svg width="86" height="66" viewBox="0 0 86 66" fill="none" xmlns="http://www.w3.org/2000/svg">
<path fill-rule="evenodd" clip-rule="evenodd" d="M5.65125 13.2687V33.7837L0 40.4938L5.65125 45.3063V66L49.9125 58.08L70.5788 65.725V54.3675L79.5163 52.7312V32.1888L85.25 25.41L79.5163 20.5562V0L5.65125 13.2963V13.2687ZM8.635 43.6562L4.16625 39.875L8.635 34.6087V15.7713L76.5188 3.575V22.2337L81.0013 26.0425L76.5188 31.3363V50.1875L67.5813 51.81V61.3525L50.2287 54.9175L8.635 62.37V43.6287V43.6562ZM67.6775 11.22V13.2825C67.6775 13.695 67.6088 14.08 67.4025 14.41L64.68 19.085L61.9437 15.3175C61.7512 15.0425 61.71 14.6575 61.71 14.3413V12.2925L58.7537 12.8287V15.0288C58.7537 15.6063 58.85 16.1975 59.1937 16.6788L63.1813 22.1925V27.2387L66.1375 26.7025V21.6562L70.125 14.8088C70.4412 14.2588 70.5513 13.6537 70.5513 13.0487V10.725L67.6637 11.2475L67.6775 11.22ZM47.9462 14.7537V29.9475L58.1213 28.1188V25.3688L50.9162 26.6612V14.245L47.9462 14.7812V14.7537ZM39.215 16.2938L35.0075 17.05C32.6287 17.49 31.295 19.0987 31.295 21.5325V28.9575C31.295 31.4325 32.6975 32.67 35.1175 32.2163L39.3388 31.46C41.7175 31.02 43.0513 29.4113 43.0513 26.9775V19.5525C43.0513 17.3937 42.0062 16.1975 40.1637 16.1975C39.8612 16.1975 39.5588 16.225 39.2425 16.2938H39.215ZM34.265 28.5863V20.9963C34.265 20.2675 34.595 19.8825 35.2825 19.7587L39.1325 19.0712C39.7787 18.9475 40.0537 19.1675 40.0537 19.855V27.5C40.0537 28.2287 39.7238 28.6137 39.0088 28.7375L35.1587 29.425C35.0762 29.4525 34.98 29.4525 34.8838 29.4525C34.4025 29.4525 34.265 29.1638 34.265 28.5725V28.5863ZM23.3475 19.14V25.0525L17.545 26.0975V20.185L14.575 20.735V35.9287L17.545 35.3787V28.875L23.3475 27.83V34.3475L26.3175 33.7975V18.6175L23.3475 19.1675V19.14ZM54.6425 31.6525L48.2763 49.94L51.3562 49.39L57.7088 31.1025L54.6425 31.6388V31.6525ZM39.215 35.4888L35.09 36.2175C32.8488 36.63 31.3775 38.0188 31.3775 40.4388V41.5387C31.3775 43.1887 32.12 44.3162 33.7975 44.4675L39.5312 44.9487C39.9162 44.9762 40.0537 45.1412 40.0537 45.54V47.08C40.0537 47.7675 39.6413 48.0425 38.9813 48.18L35.1312 48.8537C34.54 48.95 34.1688 48.9225 34.1688 48.2487V46.145L31.24 46.695V48.5788C31.24 51.0538 32.7525 51.975 35.0212 51.5625L39.3112 50.7788C41.5937 50.3663 43.0513 48.9775 43.0513 46.5575V44.7287C43.0513 43.0512 42.0888 42.1437 40.4938 42.0062L34.8563 41.5112C34.3475 41.47 34.3337 41.3187 34.3337 40.8237V39.93C34.3337 39.215 34.76 38.9537 35.4062 38.83L39.105 38.17C39.6825 38.0738 40.0675 38.1013 40.0675 38.775V41.03L42.9825 40.48V38.445C42.9825 36.3687 41.855 35.365 40.1362 35.365C39.8475 35.365 39.5313 35.3925 39.2013 35.4613L39.215 35.4888ZM23.32 38.335V49.775C23.32 50.5313 22.99 50.93 22.275 51.0538L18.425 51.7413C17.765 51.8513 17.5037 51.6312 17.5037 50.9162V48.4688L14.5475 49.005V51.2738C14.5475 53.7488 15.9638 54.9863 18.3975 54.5325L22.605 53.7763C24.9838 53.3363 26.3175 51.7275 26.3175 49.2937V37.7987L23.3475 38.3487H23.32V38.335ZM67.54 43.0513V45.705L70.51 45.1687V42.515L67.54 43.0513ZM62.48 43.945V46.6125L65.45 46.0625V43.4087L62.48 43.9587V43.945ZM57.42 44.8525V47.5062L60.39 46.97V44.3162L57.42 44.8663V44.8525Z" fill="white"/>
</svg>
